<svg xmlns="http://www.w3.org/2000/svg" width="91" height="181" viewBox="0 0 91 181" fill="none">
    <mask id="path-1-inside-1_201_2376" fill="white">
    <path d="M0.461326 0.692318C12.2818 0.692317 23.9865 3.02053 34.9071 7.54402C45.8278 12.0675 55.7506 18.6977 64.1089 27.056C72.4672 35.4143 79.0974 45.3371 83.6209 56.2578C88.1444 67.1784 90.4726 78.8831 90.4726 90.7036C90.4726 102.524 88.1444 114.229 83.6209 125.149C79.0974 136.07 72.4672 145.993 64.1089 154.351C55.7506 162.709 45.8278 169.34 34.9071 173.863C23.9865 178.387 12.2818 180.715 0.461327 180.715L0.46133 90.7036L0.461326 0.692318Z"/>
    </mask>
     <path d="M0.461326 0.692318C12.2818 0.692317 23.9865 3.02053 34.9071 7.54402C45.8278 12.0675 55.7506 18.6977 64.1089 27.056C72.4672 35.4143 79.0974 45.3371 83.6209 56.2578C88.1444 67.1784 90.4726 78.8831 90.4726 90.7036C90.4726 102.524 88.1444 114.229 83.6209 125.149C79.0974 136.07 72.4672 145.993 64.1089 154.351C55.7506 162.709 45.8278 169.34 34.9071 173.863C23.9865 178.387 12.2818 180.715 0.461327 180.715L0.46133 90.7036L0.461326 0.692318Z" stroke="#F1E9FE" stroke-width="4.2525" mask="url(#path-1-inside-1_201_2376)"/>
</svg>