<svg xmlns="http://www.w3.org/2000/svg" width="51" height="101" viewBox="0 0 51 101" fill="none">
    <mask id="path-1-inside-1_201_2378" fill="white">
    <path d="M50.4081 100.1C43.8464 100.1 37.3489 98.8077 31.2867 96.2966C25.2244 93.7856 19.7161 90.105 15.0762 85.4652C10.4364 80.8253 6.75585 75.317 4.24478 69.2547C1.73371 63.1925 0.441274 56.695 0.441274 50.1333C0.441275 43.5715 1.73371 37.074 4.24478 31.0118C6.75585 24.9495 10.4364 19.4412 15.0762 14.8013C19.7161 10.1615 25.2244 6.48095 31.2867 3.96988C37.3489 1.45881 43.8464 0.166379 50.4082 0.16638L50.4082 50.1333L50.4081 100.1Z"/>
     </mask>
     <path d="M50.4081 100.1C43.8464 100.1 37.3489 98.8077 31.2867 96.2966C25.2244 93.7856 19.7161 90.105 15.0762 85.4652C10.4364 80.8253 6.75585 75.317 4.24478 69.2547C1.73371 63.1925 0.441274 56.695 0.441274 50.1333C0.441275 43.5715 1.73371 37.074 4.24478 31.0118C6.75585 24.9495 10.4364 19.4412 15.0762 14.8013C19.7161 10.1615 25.2244 6.48095 31.2867 3.96988C37.3489 1.45881 43.8464 0.166379 50.4082 0.16638L50.4082 50.1333L50.4081 100.1Z" stroke="#F1E9FE" stroke-width="4.2525" mask="url(#path-1-inside-1_201_2378)"/>
</svg>