<svg width="18" height="18" viewBox="0 0 18 18" fill="none" xmlns="http://www.w3.org/2000/svg">
<path fill-rule="evenodd" clip-rule="evenodd" d="M8.06251 1.83629C11.5854 1.83629 14.4413 4.69215 14.4413 8.21504C14.4413 9.72098 13.9194 11.105 13.0467 12.1962L15.6512 14.8014C15.928 15.0782 15.928 15.5269 15.6512 15.8037C15.3957 16.0592 14.9937 16.0788 14.7156 15.8627L14.6488 15.8037L12.0437 13.1992C10.9525 14.0719 9.56845 14.5938 8.06251 14.5938C4.53963 14.5938 1.68376 11.7379 1.68376 8.21504C1.68376 4.69215 4.53963 1.83629 8.06251 1.83629ZM8.06251 3.25379C5.32249 3.25379 3.10126 5.47502 3.10126 8.21504C3.10126 10.9551 5.32249 13.1763 8.06251 13.1763C10.8025 13.1763 13.0238 10.9551 13.0238 8.21504C13.0238 5.47502 10.8025 3.25379 8.06251 3.25379Z" fill="white"/>
</svg>
